<?xml version="1.0" standalone="no"?>
<!DOCTYPE svg PUBLIC "-//W3C//DTD SVG 20010904//EN"
 "http://www.w3.org/TR/2001/REC-SVG-20010904/DTD/svg10.dtd">
<svg version="1.0" xmlns="http://www.w3.org/2000/svg"
 width="615.000000pt" height="615.000000pt" viewBox="0 0 615.000000 615.000000"
 preserveAspectRatio="xMidYMid meet">
<metadata>
Created by potrace 1.14, written by Peter Selinger 2001-2017
</metadata>
<g transform="translate(0.000000,615.000000) scale(0.100000,-0.100000)"
fill="#000000" stroke="none">
<path d="M1085 4541 c-69 -17 -123 -61 -163 -135 -16 -29 -17 -101 -18 -921
-1 -490 -2 -895 -3 -902 0 -7 -19 -17 -42 -23 -53 -15 -115 -77 -129 -132 -7
-25 -10 -93 -8 -168 3 -122 4 -126 35 -172 26 -37 44 -51 88 -67 31 -12 67
-21 80 -21 27 0 45 -25 45 -64 0 -40 39 -136 85 -206 88 -136 201 -223 350
-271 90 -29 268 -31 360 -4 212 62 392 244 445 450 11 44 24 83 28 87 5 5 321
7 703 6 l694 -3 16 -65 c56 -232 248 -428 469 -480 72 -17 240 -17 310 0 91
22 199 80 269 145 104 96 201 263 201 345 0 42 24 60 78 60 56 0 68 -7 90 -50
9 -19 34 -47 54 -63 37 -29 38 -30 196 -35 288 -9 353 7 400 98 22 42 23 55
20 200 -3 142 -5 158 -27 193 -23 38 -84 77 -120 77 -28 0 -30 15 -33 235 -3
185 -4 192 -31 250 -17 36 -48 79 -78 107 -47 44 -63 51 -227 104 -213 68
-264 92 -296 142 -14 20 -70 150 -126 287 -56 138 -113 271 -128 298 -34 63
-109 132 -180 165 -52 24 -71 27 -217 32 l-160 5 4 155 c3 164 0 178 -47 252
-28 44 -69 70 -134 86 -35 9 -398 12 -1435 11 -763 -1 -1401 -4 -1418 -8z
m2844 -156 c16 -8 31 -22 35 -30 3 -9 6 -69 6 -133 0 -100 -3 -121 -20 -142
l-19 -25 -1438 0 -1438 0 -3 143 -3 143 30 29 29 30 1397 0 c1206 0 1400 -2
1424 -15z m516 -530 l29 -20 -44 -2 c-66 -4 -151 -23 -178 -41 -12 -8 -34 -34
-47 -57 -25 -41 -25 -46 -25 -270 0 -211 2 -232 21 -272 11 -23 35 -53 52 -65
31 -22 41 -23 317 -28 284 -5 285 -5 340 -32 30 -15 125 -50 210 -78 85 -29
164 -57 175 -62 32 -16 76 -61 88 -88 14 -33 29 -179 31 -305 l1 -100 -125 -6
c-69 -3 -142 -11 -162 -18 -65 -21 -108 -99 -108 -197 0 -53 -1 -54 -29 -54
-26 0 -30 5 -41 48 -44 174 -175 357 -310 436 -111 64 -155 80 -270 97 -299
45 -587 -116 -719 -402 -36 -78 -51 -125 -51 -155 0 -23 -3 -24 -80 -24 l-80
0 0 833 c0 773 2 834 18 854 9 11 26 23 37 26 11 3 223 5 470 4 432 -2 451 -3
480 -22z m-1180 -700 l0 -570 -639 -3 c-545 -2 -642 0 -655 12 -26 24 -162 85
-224 101 -64 16 -237 20 -283 6 -16 -5 -49 -15 -74 -22 -45 -13 -123 -51 -172
-83 -20 -13 -43 -16 -94 -14 l-69 3 -3 560 c-1 308 0 566 3 573 3 10 230 12
1107 10 l1103 -3 0 -570z m1332 483 c5 -7 16 -29 23 -48 7 -19 19 -42 27 -51
22 -26 114 -252 109 -266 -4 -10 -46 -13 -183 -13 -240 0 -223 -15 -223 195 0
90 3 170 6 179 5 13 25 16 119 16 78 0 115 -4 122 -12z m-3571 -1212 c3 -7 -9
-40 -26 -74 -17 -33 -38 -91 -47 -129 -19 -81 -24 -87 -57 -79 -34 8 -49 66
-44 169 3 72 6 81 31 103 22 19 39 24 83 24 37 0 56 -4 60 -14z m2108 8 c14
-5 16 -28 16 -150 l0 -144 -447 2 -447 3 -17 69 c-10 37 -31 96 -48 131 -52
105 -98 95 448 95 264 0 486 -3 495 -6z m-1434 -121 c45 -18 106 -77 133 -128
17 -31 22 -57 22 -120 0 -69 -4 -86 -27 -126 -96 -163 -307 -187 -430 -51 -56
62 -70 104 -66 193 2 63 8 83 33 124 70 114 210 159 335 108z m2685 -3 c100
-43 155 -128 155 -240 0 -199 -199 -328 -375 -244 -154 72 -201 260 -101 402
34 49 78 78 146 96 62 16 116 12 175 -14z m1189 -30 l26 -10 0 -128 c0 -86 -4
-132 -12 -140 -8 -8 -67 -12 -200 -12 -168 0 -188 2 -196 18 -5 9 -6 73 -3
142 l6 125 165 5 c91 3 170 7 177 8 6 1 23 -2 37 -8z"/>
<path d="M3620 3818 c-61 -14 -94 -39 -119 -94 -21 -44 -22 -58 -19 -272 3
-252 10 -280 72 -325 30 -21 39 -22 257 -22 252 0 261 2 304 66 l25 39 0 250
c0 273 -3 290 -57 328 -16 10 -49 24 -75 30 -56 14 -325 14 -388 0z m346 -155
c9 -6 10 -60 5 -198 l-6 -190 -154 -3 c-117 -2 -156 1 -163 10 -4 7 -8 90 -8
185 0 130 3 175 13 185 15 15 293 24 313 11z"/>
<path d="M3640 3043 c-37 -14 -60 -47 -60 -84 0 -69 52 -99 171 -99 75 0 113
11 147 42 30 29 29 79 -2 115 -24 27 -27 28 -133 30 -59 1 -115 0 -123 -4z"/>
<path d="M1513 3480 l-33 -20 0 -284 c0 -283 0 -285 22 -300 30 -21 71 -20 99
3 24 19 24 20 27 273 2 139 0 268 -3 285 -4 23 -15 38 -35 48 -37 19 -38 19
-77 -5z"/>
<path d="M2135 3488 c-44 -24 -45 -29 -45 -313 0 -311 0 -310 74 -310 76 0 75
-2 76 318 l0 277 -32 20 c-38 23 -45 24 -73 8z"/>
<path d="M2745 3488 c-43 -25 -44 -31 -44 -313 0 -291 1 -298 52 -310 41 -11
75 2 92 35 12 24 15 75 15 280 0 153 -4 259 -10 271 -10 18 -59 49 -77 49 -4
0 -17 -6 -28 -12z"/>
</g>
</svg>
