<?xml version="1.0" standalone="no"?>
<!DOCTYPE svg PUBLIC "-//W3C//DTD SVG 20010904//EN"
 "http://www.w3.org/TR/2001/REC-SVG-20010904/DTD/svg10.dtd">
<svg version="1.0" xmlns="http://www.w3.org/2000/svg"
 width="501.000000pt" height="501.000000pt" viewBox="0 0 501.000000 501.000000"
 preserveAspectRatio="xMidYMid meet">
<metadata>
Created by potrace 1.14, written by Peter Selinger 2001-2017
</metadata>
<g transform="translate(0.000000,501.000000) scale(0.100000,-0.100000)"
fill="#000000" stroke="none">
<path d="M368 4224 c-65 -20 -133 -89 -153 -156 -13 -45 -15 -192 -15 -1113
l0 -1062 -39 -12 c-58 -17 -127 -90 -146 -153 -50 -170 21 -334 163 -374 31
-8 63 -17 70 -19 6 -3 12 -16 12 -29 0 -47 50 -181 90 -243 160 -243 449 -346
726 -259 202 65 376 256 415 456 7 36 15 68 18 71 3 4 324 9 714 12 l707 5 5
-26 c16 -81 50 -184 77 -232 49 -87 181 -211 269 -253 151 -73 314 -84 475
-33 198 63 372 251 413 446 7 30 14 65 17 77 4 21 10 23 74 23 l70 0 21 -45
c25 -53 79 -101 129 -115 51 -14 334 -13 384 2 53 16 121 84 135 134 15 53 14
237 -1 288 -14 46 -84 122 -121 131 l-24 6 -7 277 c-9 315 -28 563 -47 607
-24 55 -68 113 -101 133 -36 22 -319 130 -411 157 -66 19 -47 -15 -199 350
-124 298 -149 346 -207 394 -98 82 -95 81 -297 81 l-181 0 5 128 c6 165 -8
221 -74 286 -81 81 29 76 -1533 75 -1177 0 -1393 -3 -1433 -15z m2847 -130
c55 -26 67 -62 63 -191 -5 -164 17 -153 -297 -153 -203 -1 -261 -4 -281 -15
-21 -12 -200 -14 -1197 -15 l-1173 0 0 146 c0 161 9 196 58 226 25 16 126 17
1410 18 1231 0 1388 -2 1417 -16z m549 -503 c80 -55 78 -59 -28 -63 -86 -3
-98 -6 -137 -33 -23 -16 -53 -50 -66 -74 -22 -41 -23 -55 -23 -220 0 -201 9
-234 75 -289 47 -38 96 -49 255 -57 135 -6 192 5 236 46 l21 20 13 -30 c17
-42 67 -77 136 -95 86 -23 371 -132 403 -156 59 -41 62 -67 69 -492 l5 -388
-114 0 c-99 0 -121 -3 -166 -24 -73 -34 -105 -85 -112 -179 l-6 -72 -66 -3
-66 -3 -17 68 c-57 228 -237 411 -461 468 -77 20 -230 19 -309 -1 -113 -29
-204 -81 -292 -169 -90 -90 -142 -180 -170 -297 l-17 -68 -108 0 -109 0 0
1044 c0 1040 0 1043 21 1070 l20 26 485 0 485 0 43 -29z m-1204 -906 l0 -785
-646 0 -646 0 -57 35 c-32 20 -91 48 -132 63 -65 23 -89 26 -199 26 -110 0
-134 -3 -199 -26 -41 -15 -100 -43 -132 -63 -52 -32 -63 -35 -133 -35 l-76 0
0 785 0 785 1110 0 1110 0 0 -785z m1383 560 c82 -165 91 -201 56 -236 -20
-20 -29 -21 -166 -17 -144 3 -145 3 -169 31 -23 27 -24 34 -24 173 0 84 5 154
11 165 15 29 44 38 134 38 l80 1 78 -155z m-3624 -1562 c-21 -43 -44 -108 -51
-145 -14 -75 -23 -81 -78 -53 -41 21 -60 63 -60 135 0 64 18 112 47 129 10 6
55 11 99 11 l81 0 -38 -77z m2131 -68 l0 -145 -475 0 -475 0 0 24 c0 39 -40
157 -72 214 l-29 52 525 0 526 0 0 -145z m-1459 21 c43 -20 104 -79 127 -121
24 -43 23 -178 -1 -226 -22 -44 -80 -104 -122 -127 -43 -24 -178 -23 -226 1
-44 22 -105 81 -126 122 -22 41 -28 143 -13 191 25 75 89 145 158 171 48 17
157 12 203 -11z m2680 0 c43 -20 104 -79 127 -121 24 -43 23 -178 -1 -226 -22
-44 -80 -104 -122 -127 -43 -24 -178 -23 -226 1 -44 22 -105 81 -126 122 -22
41 -28 143 -13 191 25 75 89 145 158 171 48 17 157 12 203 -11z m1184 -31 c24
-23 25 -31 25 -135 0 -104 -1 -112 -25 -135 -24 -24 -27 -25 -185 -25 -158 0
-161 1 -185 25 -24 23 -25 31 -25 135 0 104 1 112 25 135 24 24 27 25 185 25
158 0 161 -1 185 -25z"/>
<path d="M2910 3507 c-25 -13 -58 -43 -75 -66 l-30 -43 -3 -186 c-3 -181 -2
-189 21 -232 13 -25 43 -58 66 -75 l43 -30 168 0 168 0 43 30 c23 17 53 50 66
74 22 41 23 55 23 221 0 166 -1 180 -23 221 -13 24 -43 58 -66 74 -42 30 -44
30 -199 33 -149 3 -159 2 -202 -21z m335 -132 c24 -23 25 -28 25 -172 -1 -199
-5 -203 -180 -203 -104 0 -112 1 -135 25 -24 23 -25 28 -25 175 0 147 1 152
25 175 23 24 30 25 145 25 115 0 122 -1 145 -25z"/>
<path d="M2892 2344 c-26 -18 -30 -69 -6 -102 14 -21 22 -22 147 -22 152 0
177 9 177 63 0 18 -7 43 -16 55 -14 21 -22 22 -147 22 -104 0 -137 -3 -155
-16z"/>
<path d="M785 2925 l-25 -24 0 -291 0 -291 25 -24 c13 -14 36 -25 50 -25 14 0
37 11 50 25 l25 24 0 291 0 291 -25 24 c-13 14 -36 25 -50 25 -14 0 -37 -11
-50 -25z"/>
<path d="M1405 2925 l-25 -24 0 -291 0 -291 25 -24 c13 -14 36 -25 50 -25 14
0 37 11 50 25 l25 24 0 291 0 291 -25 24 c-13 14 -36 25 -50 25 -14 0 -37 -11
-50 -25z"/>
<path d="M2025 2925 l-25 -24 0 -291 0 -291 25 -24 c13 -14 36 -25 50 -25 14
0 37 11 50 25 l25 24 0 291 0 291 -25 24 c-13 14 -36 25 -50 25 -14 0 -37 -11
-50 -25z"/>
</g>
</svg>
