<?xml version="1.0" standalone="no"?>
<!DOCTYPE svg PUBLIC "-//W3C//DTD SVG 20010904//EN"
 "http://www.w3.org/TR/2001/REC-SVG-20010904/DTD/svg10.dtd">
<svg version="1.0" xmlns="http://www.w3.org/2000/svg"
 width="512.000000pt" height="512.000000pt" viewBox="0 0 512.000000 512.000000"
 preserveAspectRatio="xMidYMid meet">
<metadata>
Created by potrace 1.14, written by Peter Selinger 2001-2017
</metadata>
<g transform="translate(0.000000,512.000000) scale(0.100000,-0.100000)"
fill="#000000" stroke="none">
<path d="M904 3781 c-58 -14 -101 -49 -128 -103 l-26 -52 0 -740 -1 -741 -52
-25 c-80 -39 -97 -76 -97 -221 0 -104 2 -119 23 -149 31 -46 64 -68 125 -82
43 -11 52 -16 52 -35 0 -75 97 -245 182 -318 208 -178 544 -158 729 43 65 72
125 181 137 252 l8 45 585 3 585 2 17 -69 c36 -139 152 -282 281 -345 201 -99
455 -57 605 99 93 97 132 168 156 288 5 25 8 27 59 27 52 0 55 -1 73 -37 37
-71 62 -78 278 -78 181 0 192 1 221 22 56 40 66 78 62 227 -4 155 -13 176 -95
212 l-53 24 0 162 c0 158 -1 165 -28 223 -47 99 -86 125 -269 185 -87 28 -173
60 -190 71 -38 24 -57 62 -169 338 -67 164 -86 202 -127 247 -75 83 -129 104
-290 111 l-132 6 0 142 c0 138 -1 143 -28 183 -15 23 -46 52 -70 64 l-42 23
-1175 2 c-646 0 -1189 -2 -1206 -6z m2374 -137 c20 -14 22 -23 22 -121 0 -85
-3 -110 -17 -125 -15 -17 -66 -18 -1210 -18 l-1193 0 0 118 c0 64 4 122 8 128
22 33 41 33 1207 34 1035 0 1163 -2 1183 -16z m-560 -1016 l-3 -473 -528 -3
c-514 -2 -529 -2 -557 18 -76 54 -196 90 -302 90 -110 0 -191 -23 -290 -83
-39 -23 -56 -28 -100 -25 l-53 3 -3 473 -2 472 920 0 920 0 -2 -472z m589 355
c-4 -38 -7 -110 -7 -161 l0 -93 -132 3 -133 3 2 150 c1 83 2 153 2 158 1 4 62
7 137 7 l137 0 -6 -67z m533 15 c8 -18 19 -40 26 -48 21 -26 95 -213 89 -227
-4 -11 -31 -13 -142 -8 -205 9 -183 -11 -183 165 l0 150 99 0 99 0 12 -32z
m660 -808 c6 -11 10 -51 8 -88 l-3 -67 -95 -6 c-52 -3 -110 -10 -127 -14 l-33
-7 0 69 c0 55 4 76 20 96 24 30 39 34 142 36 68 1 79 -1 88 -19z m-3646 -169
c3 -5 -8 -35 -24 -67 -16 -33 -35 -83 -41 -112 -12 -62 -33 -76 -61 -43 -14
18 -18 40 -18 101 0 103 19 130 90 130 27 0 51 -4 54 -9z m1763 -5 c4 -8 6
-63 3 -123 l-5 -108 -367 -3 -367 -2 -11 42 c-15 61 -41 130 -57 153 -7 11
-13 27 -13 37 0 17 24 18 405 18 338 0 405 -2 412 -14z m-1166 -111 c109 -77
129 -230 41 -327 -108 -120 -291 -97 -363 45 -24 45 -28 133 -9 182 16 41 67
94 115 117 60 28 161 20 216 -17z m2197 19 c131 -54 174 -222 86 -340 -33 -45
-116 -84 -179 -84 -40 0 -63 7 -105 33 -91 54 -129 154 -99 261 13 47 85 121
131 135 51 14 125 13 166 -5z m1007 -144 l0 -115 -165 0 -165 0 -3 104 c-1 58
0 111 2 118 4 11 39 13 168 11 l163 -3 0 -115z"/>
<path d="M1253 2902 c-6 -4 -17 -20 -22 -35 -14 -37 -14 -404 0 -445 12 -36
54 -56 85 -40 42 23 44 33 44 265 0 210 -1 224 -20 243 -20 20 -65 26 -87 12z"/>
<path d="M1764 2902 c-29 -19 -34 -56 -34 -256 0 -132 4 -214 11 -230 22 -47
95 -52 118 -7 7 12 11 103 11 240 0 208 -1 222 -20 241 -20 20 -65 26 -86 12z"/>
<path d="M2266 2894 c-14 -13 -16 -50 -16 -249 0 -199 2 -236 16 -249 26 -27
71 -24 97 6 15 18 17 45 17 244 0 211 -1 225 -20 244 -24 24 -72 26 -94 4z"/>
</g>
</svg>
